<?xml version="1.0" encoding="utf-8"?>
<!-- Generator: Adobe Illustrator 24.1.2, SVG Export Plug-In . SVG Version: 6.00 Build 0)  -->
<svg version="1.1" id="Capa_1" xmlns="http://www.w3.org/2000/svg" xmlns:xlink="http://www.w3.org/1999/xlink" x="0px" y="0px"
	 viewBox="0 0 183.6 19.9" style="enable-background:new 0 0 183.6 19.9;" xml:space="preserve">
<style type="text/css">
	.st0{fill:#FFFFFF;}
</style>
<g>
	<path class="st0" d="M4.3,0.6v18.8H0V0.6H4.3z"/>
	<path class="st0" d="M20.3,11.2v8.3h-4v-7.7c0-1.7-1.1-2.5-2.3-2.5c-1.5,0-2.5,0.9-2.5,2.8v7.4h-4V6h4v1.3c0.7-1,2.1-1.6,3.9-1.6
		C18,5.7,20.3,7.6,20.3,11.2z"/>
	<path class="st0" d="M36.9,0.6v18.8h-4v-1.3c-0.9,1-2.2,1.6-4,1.6c-3.5,0-6.4-3.1-6.4-7.1s2.9-7.1,6.4-7.1c1.8,0,3.1,0.6,4,1.6V0.6
		H36.9z M32.9,12.8c0-2-1.3-3.3-3.2-3.3c-1.9,0-3.2,1.3-3.2,3.3c0,2,1.3,3.3,3.2,3.3C31.5,16,32.9,14.8,32.9,12.8z"/>
	<path class="st0" d="M39.5,2.4c0-1.3,1.1-2.4,2.4-2.4c1.3,0,2.4,1.1,2.4,2.4s-1.1,2.4-2.4,2.4C40.6,4.8,39.5,3.7,39.5,2.4z M39.9,6
		h4v13.5h-4V6z"/>
	<path class="st0" d="M46.2,12.8c0-4,3-7.1,7.1-7.1c2.6,0,4.9,1.4,6.1,3.4l-3.5,2c-0.5-0.9-1.4-1.5-2.6-1.5c-1.8,0-3,1.3-3,3.1
		c0,1.9,1.3,3.1,3,3.1c1.2,0,2.2-0.6,2.6-1.5l3.5,2c-1.2,2.1-3.4,3.5-6.1,3.5C49.2,19.9,46.2,16.8,46.2,12.8z"/>
	<path class="st0" d="M74.6,6v13.5h-4v-1.3c-0.9,1-2.2,1.6-4,1.6c-3.5,0-6.4-3.1-6.4-7.1s2.9-7.1,6.4-7.1c1.8,0,3.1,0.6,4,1.6V6
		H74.6z M70.5,12.8c0-2-1.3-3.3-3.2-3.3c-1.9,0-3.2,1.3-3.2,3.3c0,2,1.3,3.3,3.2,3.3C69.2,16,70.5,14.8,70.5,12.8z"/>
	<path class="st0" d="M91.4,0.6v18.8h-4v-1.3c-0.9,1-2.2,1.6-4,1.6c-3.5,0-6.4-3.1-6.4-7.1s2.9-7.1,6.4-7.1c1.8,0,3.1,0.6,4,1.6V0.6
		H91.4z M87.3,12.8c0-2-1.3-3.3-3.2-3.3c-1.9,0-3.2,1.3-3.2,3.3c0,2,1.3,3.3,3.2,3.3C86,16,87.3,14.8,87.3,12.8z"/>
	<path class="st0" d="M93.6,12.8c0-4,3.2-7.1,7.1-7.1s7.1,3.1,7.1,7.1s-3.2,7.1-7.1,7.1S93.6,16.8,93.6,12.8z M103.9,12.8
		c0-1.9-1.3-3.2-3.1-3.2s-3.1,1.3-3.1,3.2c0,1.9,1.3,3.2,3.1,3.2S103.9,14.7,103.9,12.8z"/>
	<path class="st0" d="M118.3,5.8v4.6c-1.7-0.3-4,0.4-4,3.1v6.1h-4V6h4v2.4C114.8,6.6,116.6,5.8,118.3,5.8z"/>
	<path class="st0" d="M126.6,16.3c1.1,0,2-0.4,2.6-1l3.2,1.9c-1.3,1.8-3.3,2.8-5.9,2.8c-4.6,0-7.5-3.1-7.5-7.1s2.9-7.1,7.2-7.1
		c3.9,0,6.8,3,6.8,7.1c0,0.6-0.1,1.1-0.2,1.6h-9.6C123.9,15.8,125.1,16.3,126.6,16.3z M129.1,11.4c-0.4-1.6-1.6-2.1-2.9-2.1
		c-1.5,0-2.6,0.8-2.9,2.1H129.1z"/>
	<path class="st0" d="M145.3,15.5c0,3.1-2.7,4.4-5.6,4.4c-2.7,0-4.7-1-5.8-3.2l3.5-2c0.4,1,1.1,1.6,2.3,1.6c1,0,1.5-0.3,1.5-0.8
		c0-1.5-6.6-0.7-6.6-5.4c0-2.9,2.5-4.4,5.3-4.4c2.2,0,4.1,1,5.3,2.9l-3.4,1.9c-0.4-0.7-0.9-1.2-1.8-1.2c-0.7,0-1.1,0.3-1.1,0.8
		C138.7,11.5,145.3,10.5,145.3,15.5z"/>
	<path class="st0" d="M166.7,13.6c0,4.1-3.2,6.3-6.9,6.3c-2.9,0-5.4-1.3-6.6-4l3.7-2.2c0.4,1.2,1.2,2,2.9,2c1.8,0,2.6-0.9,2.6-2.1
		c0-1.2-0.8-2.1-2.6-2.1h-0.9L157.3,9l3.4-4.3h-6.9v-4h12.1v3.5l-3.3,4.1C165,9.1,166.7,11,166.7,13.6z"/>
	<path class="st0" d="M174.1,9.9v4.8c0,1.2,1,1.3,2.8,1.2v3.7c-5.3,0.5-6.8-1.1-6.8-4.8V9.9h-2.2V6h2.2V3.5l4-1.2V6h2.8v3.9H174.1z"
		/>
	<path class="st0" d="M178.8,2.4c0-1.3,1.1-2.4,2.4-2.4c1.3,0,2.4,1.1,2.4,2.4s-1.1,2.4-2.4,2.4C179.9,4.8,178.8,3.7,178.8,2.4z
		 M179.2,6h4v13.5h-4V6z"/>
</g>
</svg>
